PathFileType	4	(X/Y/Z)	./resultDataOpenSim/trcMotMarkerGrf/sub10/qtm-03-05.trc
DataRate	CameraRate	NumFrames	NumMarkers	Units	OrigDataRate	OrigDataStartFrame	OrigNumFrames
250.000000	250.000000	11	24	m	250.000000	1	502
Frame#	Time	L.Toe.Tip			R.Toe.Tip			L.Ankle.Lat			R.Ankle.Lat			L.Ankle.Med			R.Ankle.Med			L.Heel			R.Heel			L.Knee.Lat			R.Knee.Lat			L.Knee.Med			R.Knee.Med			L.Thigh.Upper			R.Thigh.Upper			L.ASIS			R.ASIS			V.Sacral			L.Acromium			R.Acromium			C7			L.Elbow			R.Elbow			L.Wrist.Lat			R.Wrist.Lat
		X1	Y1	Z1	X2	Y2	Z2	X3	Y3	Z3	X4	Y4	Z4	X5	Y5	Z5	X6	Y6	Z6	X7	Y7	Z7	X8	Y8	Z8	X9	Y9	Z9	X10	Y10	Z10	X11	Y11	Z11	X12	Y12	Z12	X13	Y13	Z13	X14	Y14	Z14	X15	Y15	Z15	X16	Y16	Z16	X17	Y17	Z17	X18	Y18	Z18	X19	Y19	Z19	X20	Y20	Z20	X21	Y21	Z21	X22	Y22	Z22	X23	Y23	Z23	X24	Y24	Z24

1	0	-1.5053858	0.03891617	-0.13349485	-1.1202849	0.065329463	0.024846911	-1.6314246	0.074450386	-0.17914884	-1.2578556	0.096007486	0.020912141	-1.6356185	0.10123137	-0.096486595	-1.2145812	0.11955473	-0.052267783	NaN	NaN	NaN	-1.2938506	0.072456997	-0.043630907	-1.4925219	0.43642664	-0.2101281	-1.1852578	0.48101367	0.07249986	-1.5003971	0.41792369	-0.089253752	-1.1483215	0.49288613	-0.050710299	-1.3901193	0.81698602	-0.27055306	-1.3617543	0.85023447	0.11014137	-1.3179547	0.92292593	-0.21380193	-1.29661	0.93860222	0.030507208	-1.5049251	0.95153564	-0.070679794	-1.3282711	1.3998522	-0.250358	-1.3578185	1.4029343	0.072560837	-1.4249418	1.4334575	-0.10149883	-1.3978019	1.0595969	-0.32356008	-1.501331	1.0791081	0.099881248	-1.2326097	0.87836088	-0.28335462	-1.3995556	0.86995232	0.17538852
2	0.004	-1.5054702	0.038774166	-0.13327882	-1.1036872	0.066215677	0.025366471	-1.6316554	0.074872385	-0.17878317	-1.2418186	0.092830373	0.021960412	-1.6354513	0.10156166	-0.096073277	-1.1995547	0.11796216	-0.051318222	NaN	NaN	NaN	-1.2774928	0.068296959	-0.042671449	-1.4911732	0.43625824	-0.2097491	-1.1792362	0.48023396	0.073665176	-1.4985217	0.41777032	-0.08896459	-1.1429609	0.49238131	-0.049514099	-1.3873468	0.81637135	-0.27038087	-1.3566444	0.84958832	0.11065969	-1.3144245	0.92205654	-0.21358461	-1.2920181	0.93773846	0.030683722	-1.5009124	0.95078007	-0.069669175	-1.3242173	1.3990842	-0.24986734	-1.3541641	1.4019368	0.073136356	-1.4208565	1.4326579	-0.10074544	-1.3915321	1.0582661	-0.32276974	-1.497979	1.0787568	0.10032082	-1.2241031	0.8794271	-0.28123685	-1.3978922	0.86901846	0.1764732
3	0.008	-1.5058954	0.038557651	-0.13278299	-1.0870779	0.067229699	0.02592198	-1.6321261	0.07526977	-0.17854812	-1.2257049	0.089781424	0.023012643	-1.6352972	0.10190963	-0.095655247	-1.1847112	0.11629596	-0.05037635	NaN	NaN	NaN	-1.2610748	0.064276429	-0.041414318	-1.4898111	0.43607336	-0.20938995	-1.1733709	0.47939762	0.074792852	-1.4966886	0.41755865	-0.088666705	-1.1376523	0.49180806	-0.048354504	-1.3845625	0.81573688	-0.2702064	-1.3515995	0.84889097	0.11117058	-1.3109054	0.92117363	-0.21336558	-1.2873899	0.9368706	0.030830164	-1.4968812	0.95000802	-0.068683448	-1.3201472	1.3982891	-0.24938117	-1.3502591	1.4009033	0.073674961	-1.4167662	1.4318392	-0.10004336	-1.3852794	1.0569261	-0.32193612	-1.4946087	1.0782852	0.1006265	-1.2155886	0.8805072	-0.27911688	-1.3962092	0.86809998	0.17754618
4	0.012	-1.5065368	0.038342871	-0.13215831	-1.0704662	0.068435702	0.026508373	-1.632779	0.075647126	-0.17841001	-1.209486	0.086937355	0.024107858	-1.6351253	0.1022569	-0.095197977	-1.1700498	0.11459862	-0.049431199	NaN	NaN	NaN	-1.2445506	0.060483606	-0.039668143	-1.4884241	0.43586407	-0.20905375	-1.1677328	0.47844354	0.075866597	-1.4949522	0.41727717	-0.088329152	-1.1324152	0.49113068	-0.04723624	-1.3816933	0.81509297	-0.26998323	-1.3466156	0.84811546	0.11166236	-1.3073787	0.92027263	-0.21313546	-1.2826802	0.93598487	0.030955223	-1.4928045	0.94921659	-0.067727525	-1.3160441	1.3974528	-0.24889549	-1.3460648	1.3998203	0.074188415	-1.412662	1.4309867	-0.099417951	-1.3790964	1.0555631	-0.32103149	-1.4912131	1.0776257	0.10074509	-1.2070221	0.88161428	-0.27696814	-1.3945486	0.86721015	0.17861126
5	0.016	-1.5069961	0.038232022	-0.13173495	-1.0539183	0.069826764	0.027106029	-1.6333229	0.076036362	-0.1782267	-1.1932136	0.084335711	0.025303466	-1.6348942	0.10257678	-0.094673426	-1.1554335	0.11300871	-0.048441067	NaN	NaN	NaN	-1.2279717	0.056949911	-0.037547199	-1.4870045	0.43563317	-0.20873777	-1.1622907	0.47734257	0.076901731	-1.4933247	0.41695771	-0.087924604	-1.1272473	0.49034686	-0.046150942	-1.3786716	0.81446735	-0.26965802	-1.3416001	0.84727489	0.11214655	-1.3038309	0.91935608	-0.21288974	-1.2778629	0.93507248	0.031085519	-1.4886714	0.94841275	-0.066786818	-1.3119066	1.3965748	-0.248413	-1.341722	1.3987023	0.074707042	-1.4085418	1.4300964	-0.098857055	-1.3730268	1.0541806	-0.32006046	-1.4878291	1.0768416	0.10076016	-1.1983926	0.88275497	-0.2747787	-1.3929525	0.86634424	0.17968765
6	0.02	-1.5070886	0.038219267	-0.13161904	-1.0374977	0.071367755	0.027717574	-1.6335739	0.076473458	-0.17792868	-1.1769801	0.081980585	0.026624001	-1.6346093	0.10288265	-0.094108527	-1.1407308	0.11163788	-0.047350707	NaN	NaN	NaN	-1.2114436	0.053665315	-0.035437311	-1.485551	0.43539116	-0.20844218	-1.1568787	0.47612232	0.077953871	-1.4917216	0.41663663	-0.087470985	-1.1221425	0.48946148	-0.045100036	-1.3755288	0.81386902	-0.26925584	-1.3364378	0.84639947	0.11265332	-1.3002764	0.91842043	-0.21263853	-1.2729562	0.93413339	0.031230245	-1.4844905	0.94759902	-0.065849232	-1.3077429	1.395666	-0.2479427	-1.3373687	1.3975637	0.075237172	-1.4044028	1.4291733	-0.098325032	-1.3670397	1.0527867	-0.31907669	-1.4845139	1.0760854	0.10082861	-1.1897626	0.88392997	-0.27257572	-1.3914166	0.86548978	0.18079067
7	0.024	-1.5069351	0.038239615	-0.131696	-1.0212471	0.073022756	0.028354107	-1.6335846	0.076971542	-0.17755859	-1.160921	0.079822537	0.028029242	-1.6343212	0.10322121	-0.093573105	-1.1259321	0.11050764	-0.046131717	NaN	NaN	NaN	-1.1950574	0.050611661	-0.033672855	-1.4840649	0.43515151	-0.20816602	-1.1512753	0.47485306	0.079085273	-1.4899955	0.41633041	-0.087036791	-1.1171083	0.48847198	-0.04409506	-1.3723672	0.81328764	-0.26886638	-1.3311348	0.84549471	0.11318524	-1.2967315	0.91745396	-0.21239293	-1.2680247	0.93316212	0.031376144	-1.4802793	0.94677085	-0.064917174	-1.3035613	1.3947385	-0.24748354	-1.3330596	1.3964011	0.07576933	-1.4002404	1.4282256	-0.097788181	-1.3610634	1.0513729	-0.3181443	-1.4812816	1.0754455	0.10103455	-1.1812123	0.88513796	-0.27038771	-1.38995	0.86464198	0.18191163
8	0.028	-1.5067268	0.038249308	-0.13182187	-1.00519	0.074759864	0.029007612	-1.6334842	0.077512122	-0.17717895	-1.1451553	0.077793111	0.029459002	-1.6340727	0.10362626	-0.093121052	-1.1111299	0.10958679	-0.04479084	NaN	NaN	NaN	-1.1788561	0.047782003	-0.032311615	-1.4825381	0.43492371	-0.20790659	-1.1454671	0.47358947	0.080279423	-1.4880681	0.41603845	-0.086681151	-1.1121567	0.48737061	-0.043150506	-1.3692477	0.8127162	-0.26854121	-1.32583	0.84453406	0.11371182	-1.2931672	0.91645672	-0.21214208	-1.2631344	0.93214664	0.031503685	-1.4760458	0.94592064	-0.063989457	-1.2993591	1.3937974	-0.2470224	-1.3287748	1.3952089	0.076297963	-1.3960479	1.4272577	-0.097226854	-1.3550511	1.0499295	-0.31726563	-1.4780913	1.0748946	0.10134975	-1.1727483	0.8863821	-0.26820599	-1.3886128	0.86379274	0.18303358
9	0.032	-1.5065737	0.038240689	-0.13191712	-0.98932954	0.076557217	0.02964994	-1.6333481	0.078067969	-0.17681792	-1.129662	0.075898738	0.030918649	-1.6338636	0.10409753	-0.092752544	-1.0964445	0.10884684	-0.04334722	NaN	NaN	NaN	-1.1628364	0.045182944	-0.031127122	-1.4809617	0.4347123	-0.20766313	-1.1397602	0.47231277	0.081420996	-1.4860428	0.41575566	-0.086384362	-1.1072879	0.48615078	-0.042275601	-1.3661513	0.81215549	-0.26826063	-1.3206326	0.84349492	0.1142114	-1.2895107	0.91545832	-0.21185119	-1.2583	0.93108534	0.031607763	-1.4717847	0.94504031	-0.063051674	-1.2951238	1.3928477	-0.24654414	-1.3244651	1.3939929	0.076821652	-1.3918204	1.4262666	-0.096637368	-1.349003	1.0484645	-0.3163878	-1.4748951	1.0743704	0.10171207	-1.1643206	0.88766744	-0.2660045	-1.3874154	0.86292768	0.18416376
10	0.036	-1.5065013	0.038223638	-0.13196511	-0.97367141	0.078413565	0.030250764	-1.6331974	0.078632882	-0.17647118	-1.1142766	0.074239954	0.032494684	-1.6336574	0.10461126	-0.092422923	-1.0819624	0.10827714	-0.041813677	NaN	NaN	NaN	-1.1469622	0.042844865	-0.029762882	-1.4793352	0.43452201	-0.20743566	-1.1344116	0.47096835	0.082432005	-1.4841043	0.41548483	-0.086071263	-1.1024946	0.48481082	-0.041466089	-1.3630265	0.8116038	-0.26797646	-1.3155211	0.84238268	0.11469415	-1.2857156	0.91449108	-0.21149661	-1.2534744	0.92999142	0.031707335	-1.4674848	0.94412405	-0.062087569	-1.2908436	1.3918903	-0.24604119	-1.3201106	1.3927644	0.077346856	-1.3875612	1.4252476	-0.096034397	-1.3429421	1.0469929	-0.31546964	-1.4716682	1.0738363	0.10208258	-1.1559076	0.88898919	-0.26377782	-1.3861328	0.86205576	0.18534885
11	0.04	-1.5064896	0.038205596	-0.1319787	-0.95827356	0.080347975	0.030797962	-1.6330425	0.079217814	-0.17612158	-1.0988539	0.072930646	0.034280337	-1.6334042	0.10512985	-0.092074163	-1.067721	0.10787084	-0.040190984	NaN	NaN	NaN	-1.1311903	0.040823648	-0.027996652	-1.4776648	0.43435617	-0.20721739	-1.1292693	0.46955209	0.083383411	-1.4823019	0.41523742	-0.085701341	-1.0977737	0.48335332	-0.040712893	-1.3598397	0.81105486	-0.26764958	-1.3104234	0.84121155	0.11517644	-1.2818085	0.91355396	-0.21109156	-1.2485943	0.92888013	0.031830787	-1.463138	0.94317127	-0.061090901	-1.2865168	1.3909167	-0.24551535	-1.3157247	1.3915291	0.077890711	-1.3832787	1.4242021	-0.095447063	-1.3368883	1.0455219	-0.31451001	-1.4684076	1.0732826	0.10244884	-1.1475479	0.8903351	-0.26154899	-1.3843418	0.86124022	0.18666265
